<svg xmlns="http://www.w3.org/2000/svg" xmlns:xlink="http://www.w3.org/1999/xlink" width="400" height="430.202" viewBox="0 0 400 430.202">
  <defs>
    <clipPath id="clip-path">
      <path id="SVGID" d="M1731.736,1173.884l-47.228,47.228-60.406,60.407a381.824,381.824,0,0,0,45.46,21.355l14.928-14.928v20.377a330.423,330.423,0,0,0,47.246,12.326v-80.093h0v-60.833h0Z" transform="translate(-1624.102 -1173.884)" fill="none" clip-rule="evenodd"/>
    </clipPath>
  </defs>
  <g id="logo" transform="translate(-13323 -1987.288)">
    <g id="Groupe_728" data-name="Groupe 728" transform="translate(13372.606 1987.288)">
      <g id="Groupe_719" data-name="Groupe 719" transform="translate(0 0)">
        <path id="Tracé_388" data-name="Tracé 388" d="M1214.97,672.906V653.768l-58.5,58.5-1.951,1.95v.1l-89.768,89.768-89.768-89.768v-.1l-1.951-1.95-58.5-58.5V739.35h0v54h0v63.621h0V859.8h0V945.11l21.126,21.126,2.746,2.745v.138l36.575,36.576V920.247h0V834.763h0V799.8l89.768,89.767,89.768-89.767h0l60.446-60.447h0V672.906Z" transform="translate(-914.539 -653.768)" fill="#8c52ff" fill-rule="evenodd"/>
        <path id="Tracé_389" data-name="Tracé 389" d="M1454.377,1132.2h0v63.621h0v2.823h0v85.309l-21.127,21.126-2.745,2.745v.137l-36.575,36.577v-85.448l-89.768,89.768-65.043-65.044V1198.33l65.043,65.044,91.719-91.719,48.976-48.975,9.52-9.52v19.04Z" transform="translate(-1153.947 -992.611)" fill="#333" fill-rule="evenodd"/>
      </g>
      <g id="Groupe_723" data-name="Groupe 723" transform="translate(186.195 136.483)">
        <g id="Groupe_722" data-name="Groupe 722" transform="translate(0)">
          <g id="Groupe_721" data-name="Groupe 721">
            <g id="Groupe_720" data-name="Groupe 720" clip-path="url(#clip-path)">
              <rect id="Rectangle_772" data-name="Rectangle 772" width="58.05" height="106.28" transform="translate(62.681 37.666) rotate(-48.145)" fill="#333"/>
              <rect id="Rectangle_773" data-name="Rectangle 773" width="2.02" height="106.28" transform="matrix(0.667, -0.745, 0.745, 0.667, 61.784, 38.666)" fill="#333"/>
              <rect id="Rectangle_774" data-name="Rectangle 774" width="2.021" height="106.28" transform="translate(60.876 39.68) rotate(-48.156)" fill="#343433"/>
              <rect id="Rectangle_775" data-name="Rectangle 775" width="2.021" height="106.28" transform="matrix(0.667, -0.745, 0.745, 0.667, 59.991, 40.668)" fill="#343434"/>
              <rect id="Rectangle_776" data-name="Rectangle 776" width="2.021" height="106.28" transform="translate(59.085 41.679) rotate(-48.145)" fill="#343434"/>
              <rect id="Rectangle_777" data-name="Rectangle 777" width="2.021" height="106.28" transform="translate(58.193 42.675) rotate(-48.134)" fill="#353534"/>
              <rect id="Rectangle_778" data-name="Rectangle 778" width="2.021" height="106.28" transform="translate(57.287 43.686) rotate(-48.145)" fill="#363535"/>
              <rect id="Rectangle_779" data-name="Rectangle 779" width="2.021" height="106.28" transform="matrix(0.667, -0.745, 0.745, 0.667, 56.389, 44.689)" fill="#363535"/>
              <rect id="Rectangle_780" data-name="Rectangle 780" width="2.021" height="106.28" transform="translate(55.492 45.69) rotate(-48.141)" fill="#373635"/>
              <rect id="Rectangle_781" data-name="Rectangle 781" width="2.021" height="106.28" transform="translate(54.584 46.704) rotate(-48.155)" fill="#373636"/>
              <rect id="Rectangle_782" data-name="Rectangle 782" width="2.021" height="106.28" transform="matrix(0.667, -0.745, 0.745, 0.667, 53.691, 47.701)" fill="#373636"/>
              <rect id="Rectangle_783" data-name="Rectangle 783" width="2.021" height="106.28" transform="translate(52.795 48.701) rotate(-48.141)" fill="#383736"/>
              <rect id="Rectangle_784" data-name="Rectangle 784" width="2.021" height="106.28" transform="matrix(0.667, -0.745, 0.745, 0.667, 51.889, 49.712)" fill="#393737"/>
              <rect id="Rectangle_785" data-name="Rectangle 785" width="2.021" height="106.28" transform="translate(50.995 50.71) rotate(-48.145)" fill="#393837"/>
              <rect id="Rectangle_786" data-name="Rectangle 786" width="2.021" height="106.28" transform="translate(50.096 51.713) rotate(-48.144)" fill="#3a3837"/>
              <rect id="Rectangle_787" data-name="Rectangle 787" width="2.021" height="106.28" transform="translate(49.197 52.717) rotate(-48.145)" fill="#3a3938"/>
              <rect id="Rectangle_788" data-name="Rectangle 788" width="2.021" height="106.28" transform="matrix(0.667, -0.745, 0.745, 0.667, 48.305, 53.712)" fill="#3a3938"/>
              <rect id="Rectangle_789" data-name="Rectangle 789" width="2.021" height="106.28" transform="translate(47.392 54.732) rotate(-48.156)" fill="#3b3939"/>
              <rect id="Rectangle_790" data-name="Rectangle 790" width="2.021" height="106.28" transform="matrix(0.667, -0.745, 0.745, 0.667, 46.507, 55.719)" fill="#3c3a39"/>
              <rect id="Rectangle_791" data-name="Rectangle 791" width="2.021" height="106.28" transform="matrix(0.667, -0.745, 0.745, 0.667, 45.597, 56.736)" fill="#3c3a39"/>
              <rect id="Rectangle_792" data-name="Rectangle 792" width="2.021" height="106.28" transform="translate(44.702 57.735) rotate(-48.145)" fill="#3d3b3a"/>
              <rect id="Rectangle_793" data-name="Rectangle 793" width="2.021" height="106.28" transform="translate(43.806 58.735) rotate(-48.141)" fill="#3d3b3a"/>
              <rect id="Rectangle_794" data-name="Rectangle 794" width="2.021" height="106.28" transform="translate(42.904 59.742) rotate(-48.145)" fill="#3e3b3b"/>
              <rect id="Rectangle_795" data-name="Rectangle 795" width="2.021" height="106.28" transform="matrix(0.667, -0.745, 0.745, 0.667, 42.013, 60.736)" fill="#3e3c3b"/>
              <rect id="Rectangle_796" data-name="Rectangle 796" width="2.021" height="106.28" transform="translate(41.103 61.753) rotate(-48.151)" fill="#3f3c3b"/>
              <rect id="Rectangle_797" data-name="Rectangle 797" width="2.021" height="106.28" transform="matrix(0.667, -0.745, 0.745, 0.667, 40.214, 62.744)" fill="#403d3c"/>
              <rect id="Rectangle_798" data-name="Rectangle 798" width="2.021" height="106.28" transform="matrix(0.667, -0.745, 0.745, 0.667, 39.305, 63.76)" fill="#403d3c"/>
              <rect id="Rectangle_799" data-name="Rectangle 799" width="2.021" height="106.28" transform="translate(38.417 64.751) rotate(-48.134)" fill="#403d3d"/>
              <rect id="Rectangle_800" data-name="Rectangle 800" width="2.021" height="106.28" transform="translate(37.511 65.762) rotate(-48.145)" fill="#413e3d"/>
              <rect id="Rectangle_801" data-name="Rectangle 801" width="2.021" height="106.28" transform="translate(36.612 66.765) rotate(-48.144)" fill="#423e3d"/>
              <rect id="Rectangle_802" data-name="Rectangle 802" width="2.021" height="106.28" transform="translate(35.713 67.769) rotate(-48.145)" fill="#423f3e"/>
              <rect id="Rectangle_803" data-name="Rectangle 803" width="2.021" height="106.28" transform="translate(34.808 68.78) rotate(-48.155)" fill="#433f3e"/>
              <rect id="Rectangle_804" data-name="Rectangle 804" width="2.021" height="106.28" transform="translate(33.915 69.776) rotate(-48.145)" fill="#43403f"/>
              <rect id="Rectangle_805" data-name="Rectangle 805" width="2.021" height="106.28" transform="translate(33.016 70.779) rotate(-48.145)" fill="#44403f"/>
              <rect id="Rectangle_806" data-name="Rectangle 806" width="2.021" height="106.28" transform="translate(32.118 71.782) rotate(-48.144)" fill="#444140"/>
              <rect id="Rectangle_807" data-name="Rectangle 807" width="2.021" height="106.28" transform="translate(31.218 72.786) rotate(-48.145)" fill="#454140"/>
              <rect id="Rectangle_808" data-name="Rectangle 808" width="2.021" height="106.28" transform="translate(30.32 73.789) rotate(-48.144)" fill="#464240"/>
              <rect id="Rectangle_809" data-name="Rectangle 809" width="2.021" height="106.28" transform="translate(29.423 74.79) rotate(-48.141)" fill="#464241"/>
              <rect id="Rectangle_810" data-name="Rectangle 810" width="2.021" height="106.28" transform="translate(28.523 75.796) rotate(-48.144)" fill="#474341"/>
              <rect id="Rectangle_811" data-name="Rectangle 811" width="2.021" height="106.28" transform="translate(27.623 76.8) rotate(-48.145)" fill="#474342"/>
              <rect id="Rectangle_812" data-name="Rectangle 812" width="2.021" height="106.28" transform="matrix(0.667, -0.745, 0.745, 0.667, 26.73, 77.796)" fill="#484342"/>
              <rect id="Rectangle_813" data-name="Rectangle 813" width="2.021" height="106.28" transform="translate(25.819 78.814) rotate(-48.155)" fill="#494442"/>
              <rect id="Rectangle_814" data-name="Rectangle 814" width="2.021" height="106.28" transform="translate(24.926 79.81) rotate(-48.145)" fill="#4a4543"/>
              <rect id="Rectangle_815" data-name="Rectangle 815" width="2.021" height="106.28" transform="translate(24.021 80.821) rotate(-48.155)" fill="#494543"/>
              <rect id="Rectangle_816" data-name="Rectangle 816" width="2.021" height="106.28" transform="translate(23.128 81.817) rotate(-48.145)" fill="#4a4544"/>
              <rect id="Rectangle_817" data-name="Rectangle 817" width="2.021" height="106.28" transform="translate(22.236 82.813) rotate(-48.134)" fill="#4b4644"/>
              <rect id="Rectangle_818" data-name="Rectangle 818" width="2.021" height="106.28" transform="translate(21.324 83.831) rotate(-48.155)" fill="#4c4745"/>
              <rect id="Rectangle_819" data-name="Rectangle 819" width="2.021" height="106.28" transform="translate(20.438 84.819) rotate(-48.134)" fill="#4c4745"/>
              <rect id="Rectangle_820" data-name="Rectangle 820" width="2.021" height="106.28" transform="translate(19.526 85.838) rotate(-48.155)" fill="#4d4746"/>
              <rect id="Rectangle_821" data-name="Rectangle 821" width="2.021" height="106.28" transform="matrix(0.667, -0.745, 0.745, 0.667, 18.641, 86.826)" fill="#4e4846"/>
              <rect id="Rectangle_822" data-name="Rectangle 822" width="2.021" height="106.28" transform="translate(17.737 87.835) rotate(-48.141)" fill="#4e4947"/>
              <rect id="Rectangle_823" data-name="Rectangle 823" width="2.021" height="106.28" transform="translate(16.836 88.841) rotate(-48.145)" fill="#4f4947"/>
              <rect id="Rectangle_824" data-name="Rectangle 824" width="2.021" height="106.28" transform="translate(15.937 89.845) rotate(-48.145)" fill="#4f4a48"/>
              <rect id="Rectangle_825" data-name="Rectangle 825" width="2.021" height="106.28" transform="translate(15.034 90.853) rotate(-48.151)" fill="#504a48"/>
              <rect id="Rectangle_826" data-name="Rectangle 826" width="2.021" height="106.28" transform="translate(14.139 91.851) rotate(-48.145)" fill="#514b49"/>
              <rect id="Rectangle_827" data-name="Rectangle 827" width="2.021" height="106.28" transform="translate(13.233 92.863) rotate(-48.156)" fill="#514b49"/>
              <rect id="Rectangle_828" data-name="Rectangle 828" width="2.021" height="106.28" transform="matrix(0.667, -0.745, 0.745, 0.667, 12.348, 93.85)" fill="#524c4a"/>
              <rect id="Rectangle_829" data-name="Rectangle 829" width="2.021" height="106.28" transform="translate(11.442 94.862) rotate(-48.145)" fill="#534c4a"/>
              <rect id="Rectangle_830" data-name="Rectangle 830" width="2.021" height="106.28" transform="translate(10.546 95.862) rotate(-48.14)" fill="#544d4b"/>
              <rect id="Rectangle_831" data-name="Rectangle 831" width="2.021" height="106.28" transform="translate(9.645 96.869) rotate(-48.145)" fill="#544e4b"/>
              <rect id="Rectangle_832" data-name="Rectangle 832" width="2.021" height="106.28" transform="matrix(0.667, -0.745, 0.745, 0.667, 8.746, 97.872)" fill="#544e4c"/>
              <rect id="Rectangle_833" data-name="Rectangle 833" width="2.021" height="106.28" transform="translate(7.847 98.875) rotate(-48.145)" fill="#554f4d"/>
              <rect id="Rectangle_834" data-name="Rectangle 834" width="2.021" height="106.28" transform="translate(6.947 99.879) rotate(-48.145)" fill="#564f4d"/>
              <rect id="Rectangle_835" data-name="Rectangle 835" width="2.021" height="106.28" transform="translate(6.042 100.89) rotate(-48.155)" fill="#57504e"/>
              <rect id="Rectangle_836" data-name="Rectangle 836" width="2.021" height="106.28" transform="translate(5.15 101.886) rotate(-48.145)" fill="#57514e"/>
              <rect id="Rectangle_837" data-name="Rectangle 837" width="2.021" height="106.28" transform="matrix(0.667, -0.745, 0.745, 0.667, 4.246, 102.895)" fill="#58514f"/>
              <rect id="Rectangle_838" data-name="Rectangle 838" width="2.021" height="106.28" transform="matrix(0.667, -0.745, 0.745, 0.667, 3.352, 103.893)" fill="#58524f"/>
              <rect id="Rectangle_839" data-name="Rectangle 839" width="2.021" height="106.28" transform="translate(2.46 104.889) rotate(-48.134)" fill="#595250"/>
              <rect id="Rectangle_840" data-name="Rectangle 840" width="2.021" height="106.28" transform="translate(1.554 105.9) rotate(-48.145)" fill="#5a5350"/>
              <rect id="Rectangle_841" data-name="Rectangle 841" width="2.021" height="106.28" transform="matrix(0.667, -0.745, 0.745, 0.667, 0.66, 106.898)" fill="#5a5451"/>
              <rect id="Rectangle_842" data-name="Rectangle 842" width="2.021" height="106.28" transform="translate(-0.25 107.914) rotate(-48.156)" fill="#5b5452"/>
              <rect id="Rectangle_843" data-name="Rectangle 843" width="2.021" height="106.28" transform="matrix(0.667, -0.745, 0.745, 0.667, -1.136, 108.902)" fill="#5b5452"/>
              <rect id="Rectangle_844" data-name="Rectangle 844" width="1.039" height="106.28" transform="translate(-0.682 108.396) rotate(-48.127)" fill="#5c5553"/>
            </g>
          </g>
        </g>
      </g>
    </g>
    <path id="Tracé_390" data-name="Tracé 390" d="M15.456-114.593V-162.6h14.86l11.229,33.014h.134L52.3-162.6h14.86v48.008H57.278v-34.023h-.134L45.377-114.593H37.241L25.474-148.279H25.34v33.686ZM117.187-162.6v29.854q0,9.548-5.345,14.423T96.68-113.45q-20.44,0-20.44-19.3V-162.6H86.8v29.854q0,4.774,1.748,7.194,2.353,3.227,8.136,3.227,5.514,0,7.8-2.555,2.152-2.353,2.152-7.867V-162.6Zm9.077,48.008V-162.6h10.556v39.133h23.4v8.875Zm50.5,0v-39.133H162.371V-162.6h39.334v8.875H187.317v39.133Zm30.459,0V-162.6h10.556v48.008Zm62.061-31.871H259.06a8.975,8.975,0,0,0-3.5-5.984,10.873,10.873,0,0,0-6.993-2.421q-6.657,0-10.086,5.11-2.958,4.37-2.958,11.363,0,6.724,2.958,11.027a11.519,11.519,0,0,0,10.086,5.043,10.027,10.027,0,0,0,7.6-3.026,13.206,13.206,0,0,0,3.295-7.732h10.22q-.807,8.943-6.556,14.288t-14.557,5.345q-10.825,0-17.347-7.262-6.253-6.926-6.253-17.684,0-11.027,6.253-18.02,6.455-7.329,17.347-7.329a21.514,21.514,0,0,1,13.851,4.5A18.336,18.336,0,0,1,269.28-146.464Zm5.514,8.069q0-11.027,6.253-18.02,6.455-7.329,17.347-7.329t17.347,7.329q6.253,6.993,6.253,18.02,0,10.758-6.253,17.684-6.522,7.262-17.347,7.262t-17.347-7.262Q274.794-127.637,274.794-138.4Zm10.556,0q0,6.724,2.958,11.027a11.519,11.519,0,0,0,10.086,5.043,11.519,11.519,0,0,0,10.086-5.043q2.958-4.3,2.958-11.027,0-6.993-2.958-11.363-3.429-5.11-10.086-5.11t-10.086,5.11Q285.35-145.388,285.35-138.4Zm43.839,23.8V-162.6H349.9q9.75,0,15.532,5.917,6.253,6.253,6.253,17.818,0,10.893-5.379,17.347-5.782,6.926-16.406,6.926Zm10.556-39.133v30.257h9.413a11.058,11.058,0,0,0,8.27-3.227q3.7-3.765,3.7-11.161,0-7.732-2.958-11.565-3.362-4.3-10.893-4.3Zm39.267,39.133V-162.6h35.905v8.875H389.569v10.287h23.264v8.2H389.569v11.767h25.887v8.875Z" transform="translate(13307.544 2530.939)" fill="#3a3938"/>
  </g>
</svg>
