<?xml version="1.0" encoding="utf-8"?>
<!-- Generator: Adobe Illustrator 26.1.0, SVG Export Plug-In . SVG Version: 6.00 Build 0)  -->
<svg version="1.1" id="Layer_1" xmlns="http://www.w3.org/2000/svg" xmlns:xlink="http://www.w3.org/1999/xlink" x="0px" y="0px"
	 viewBox="0 0 400 430.2" style="enable-background:new 0 0 400 430.2;" xml:space="preserve">
<style type="text/css">
	.st0{fill:#C81619;}
	.st1{fill:#500F13;}
	.st2{fill:#7A7A7A;}
</style>
<g>
	<g>
		<path class="st0" d="M283,89.6c-4.2-4.7-8.9-9.1-13.9-13c-0.4,1.1,0.3,3,1,4.6c1.1,2.4,1.1,5.2,0,7.6c-1.5,3.3-4.7,7.8-11.7,12.8
			c-0.9,0.6-1.8,1.2-2.7,1.8c-16.8,10.6-55.2,38.3-55.2,38.3s-38.4-27.7-55.2-38.3c-1.2-0.8-2.3-1.5-3.3-2.2
			c-6.7-4.8-9.7-9.2-11.2-12.4c-1.1-2.4-1-5.2,0.1-7.6c0.8-1.9,1.6-4.3,0.6-5.1c-4.7,3.6-9.1,7.7-13.2,12
			c-19.3,20.7-30.9,48.7-30.1,79.3c1.5,59.1,49.4,107.1,108.5,108.8c63.1,1.8,115-49,115-111.7C311.8,135.7,300.9,109.4,283,89.6z
			 M200,250.2c-47.3,0-85.8-38.5-85.8-85.8c0-14.4,3.6-28,9.9-40c-0.1,7-0.5,38.4,0,62.8c0.6,27.7,34.4,39.9,34.4,39.9v-82.4
			c0,0,38,25.4,41,83.4c0.1,1.3,2.1,1.3,2.2,0c1.6-62.2,41-83.4,41-83.4v82.4c0,0,33.8-12.3,34.4-39.9c0.5-22.5,0.2-50.8,0-60.7
			c5.6,11.4,8.8,24.3,8.8,37.9C285.8,211.7,247.3,250.2,200,250.2z"/>
		<path class="st1" d="M259.8,81.4c0,3.6-1,6.9-2.8,9.7c-2,3.1-6.2,3.8-9.1,1.6c-4.6-3.5-12.6-8.7-22.8-12.2c-0.5-0.2-1-0.3-1.5-0.5
			c-7.4-2.3-15.2-3.6-23.3-3.6c-8.3,0-16.3,1.3-23.7,3.7c-0.5,0.2-1,0.3-1.5,0.5c-10.2,3.6-18.1,8.9-22.6,12.3
			c-2.9,2.2-7.1,1.5-9.1-1.6c-1.9-2.9-3-6.3-3-10c0-0.3,0-0.7,0-1c0.3-5.7,3.8-10.8,8.7-13.7c1.8-1.1,3.6-2.1,5.5-3
			c13.8-6.9,29.3-10.9,45.7-10.9c16.6,0,32.3,4,46.1,11.1c1.7,0.8,3.3,1.7,4.9,2.7c3.9,2.2,6.8,5.9,8,10.2
			C259.6,78.3,259.8,79.8,259.8,81.4z"/>
	</g>
	<g>
		<path class="st2" d="M57.8,317.1c0-0.8-0.3-1.4-0.8-1.9c-0.5-0.5-1.2-0.8-1.9-0.8H50c-0.8,0-1.4,0.3-1.9,0.8
			c-0.5,0.5-0.8,1.2-0.8,2v20c0,1.1-0.4,1.9-1.1,2.7c-0.7,0.7-1.6,1.1-2.7,1.1c-1.1,0-2-0.4-2.7-1.1c-0.8-0.7-1.1-1.6-1.1-2.7v-20
			c0-0.8-0.3-1.4-0.8-1.9c-0.5-0.5-1.2-0.8-1.9-0.8h-5.1c-0.8,0-1.5,0.3-2,0.8c-0.5,0.5-0.8,1.2-0.8,1.9v20c0,1.1-0.4,1.9-1.1,2.7
			c-0.7,0.7-1.6,1.1-2.7,1.1c-1.1,0-1.9-0.4-2.7-1.1c-0.7-0.7-1.1-1.6-1.1-2.7v-20c0-1.4,0.3-2.8,0.8-4c0.5-1.3,1.3-2.4,2.2-3.3
			c0.9-0.9,2-1.7,3.3-2.2c1.3-0.5,2.6-0.8,4-0.8h5.1c1.2,0,2.4,0.2,3.6,0.6c1.1,0.4,2.1,1,3,1.7c0.9-0.7,1.9-1.2,3-1.7
			c1.1-0.4,2.3-0.6,3.5-0.6h5.1c1.4,0,2.8,0.3,4,0.8c1.2,0.5,2.3,1.3,3.3,2.2c0.9,0.9,1.7,2,2.2,3.3c0.5,1.3,0.8,2.6,0.8,4v20
			c0,1.1-0.4,1.9-1.1,2.7c-0.7,0.7-1.6,1.1-2.7,1.1c-1.1,0-1.9-0.4-2.7-1.1c-0.7-0.7-1.1-1.6-1.1-2.7V317.1z"/>
		<path class="st2" d="M73.1,317.1c0-1.4,0.3-2.8,0.8-4c0.5-1.3,1.3-2.4,2.2-3.3c0.9-0.9,2-1.7,3.3-2.2c1.3-0.5,2.6-0.8,4-0.8h15.2
			c1.4,0,2.8,0.3,4,0.8c1.3,0.5,2.3,1.3,3.3,2.2c0.9,0.9,1.7,2,2.2,3.3c0.5,1.3,0.8,2.6,0.8,4v20c0,1.1-0.4,1.9-1.1,2.7
			c-0.7,0.7-1.6,1.1-2.7,1.1c-1.1,0-2-0.4-2.7-1.1c-0.8-0.7-1.1-1.6-1.1-2.7V334H80.6v3.2c0,1.1-0.4,1.9-1.1,2.7
			c-0.7,0.7-1.6,1.1-2.7,1.1c-1.1,0-1.9-0.4-2.7-1.1c-0.7-0.7-1.1-1.6-1.1-2.7V317.1z M80.6,326.4h20.7v-9.2c0-0.8-0.3-1.4-0.8-1.9
			c-0.5-0.5-1.2-0.8-1.9-0.8H83.4c-0.8,0-1.4,0.3-1.9,0.8c-0.5,0.5-0.8,1.2-0.8,1.9V326.4z"/>
		<path class="st2" d="M114.1,336.7c0-1,0.4-1.9,1.1-2.7s1.6-1.1,2.6-1.1h21.4c0.8,0,1.4-0.3,1.9-0.8c0.5-0.5,0.8-1.2,0.8-1.9
			c0-0.8-0.3-1.4-0.8-2c-0.5-0.5-1.2-0.8-1.9-0.8h-14.4c-1.4,0-2.8-0.3-4-0.8c-1.3-0.5-2.4-1.3-3.3-2.2c-0.9-0.9-1.7-2-2.2-3.3
			c-0.5-1.3-0.8-2.6-0.8-4c0-1.4,0.3-2.8,0.8-4c0.5-1.3,1.3-2.4,2.2-3.3c0.9-0.9,2-1.7,3.3-2.2c1.3-0.5,2.6-0.8,4-0.8h18.6
			c1.1,0,1.9,0.4,2.7,1.1c0.7,0.8,1.1,1.7,1.1,2.7c0,1.1-0.4,1.9-1.1,2.7c-0.7,0.7-1.6,1.1-2.7,1.1h-18.6c-0.8,0-1.4,0.3-1.9,0.8
			c-0.5,0.5-0.8,1.2-0.8,1.9c0,0.8,0.3,1.4,0.8,1.9c0.5,0.5,1.2,0.8,1.9,0.8h14.4c1.4,0,2.8,0.3,4,0.8c1.3,0.5,2.3,1.3,3.3,2.2
			c0.9,0.9,1.7,2,2.2,3.3c0.5,1.3,0.8,2.6,0.8,4s-0.3,2.8-0.8,4c-0.5,1.3-1.3,2.3-2.2,3.3c-0.9,0.9-2,1.7-3.3,2.2
			c-1.3,0.5-2.6,0.8-4,0.8h-21.4c-1,0-1.9-0.4-2.6-1.1C114.4,338.7,114.1,337.8,114.1,336.7z"/>
		<path class="st2" d="M152.2,310.6c0-1.1,0.4-1.9,1.1-2.7c0.7-0.7,1.6-1.1,2.7-1.1h23.7c1.1,0,1.9,0.4,2.7,1.1
			c0.7,0.7,1.1,1.6,1.1,2.7s-0.4,2-1.1,2.7c-0.7,0.8-1.6,1.1-2.7,1.1h-8v22.8c0,1.1-0.4,1.9-1.1,2.7c-0.8,0.7-1.7,1.1-2.7,1.1
			c-1.1,0-2-0.4-2.7-1.1c-0.8-0.7-1.1-1.6-1.1-2.7v-22.8h-8c-1.1,0-1.9-0.4-2.7-1.1C152.6,312.5,152.2,311.6,152.2,310.6z"/>
		<path class="st2" d="M195.1,319.9h18.5c1.1,0,1.9,0.4,2.7,1.1c0.7,0.7,1.1,1.6,1.1,2.7c0,1.1-0.4,2-1.1,2.7s-1.6,1.1-2.7,1.1
			h-18.5v2.8c0.1,0.8,0.4,1.4,0.9,1.9c0.5,0.5,1.1,0.8,1.9,0.8h20.9c1.1,0,1.9,0.4,2.7,1.1c0.7,0.7,1.1,1.6,1.1,2.7
			c0,1.1-0.4,1.9-1.1,2.7s-1.6,1.1-2.7,1.1h-20.9c-1.4,0-2.8-0.3-4-0.8c-1.3-0.5-2.3-1.3-3.3-2.2c-0.9-0.9-1.7-2-2.2-3.3
			c-0.5-1.3-0.8-2.6-0.8-4v-13.1c0-1.4,0.3-2.8,0.8-4c0.5-1.3,1.3-2.3,2.2-3.3c0.9-0.9,2-1.7,3.3-2.2c1.3-0.5,2.6-0.8,4-0.8h21
			c1.1,0,1.9,0.4,2.7,1.1c0.7,0.7,1.1,1.6,1.1,2.7c0,1.1-0.4,1.9-1.1,2.7c-0.7,0.7-1.6,1.1-2.7,1.1h-21c-0.8,0-1.4,0.3-1.9,0.8
			c-0.5,0.5-0.8,1.2-0.8,1.9V319.9z"/>
		<path class="st2" d="M254.6,330.2c0-0.8-0.3-1.4-0.8-2c-0.5-0.5-1.2-0.8-1.9-0.8h-16.6v9.7c0,1.1-0.4,1.9-1.1,2.7
			c-0.7,0.7-1.6,1.1-2.7,1.1c-1.1,0-1.9-0.4-2.7-1.1c-0.7-0.7-1.1-1.6-1.1-2.7v-28.7c0-0.5,0.2-0.9,0.5-1.2c0.3-0.3,0.7-0.5,1.2-0.5
			h21.4c1.7,0,3.1,0.3,4.4,0.8c1.3,0.5,2.4,1.3,3.3,2.2c0.9,0.9,1.6,2,2,3.3s0.7,2.6,0.7,4c0,1.4-0.3,2.6-0.9,3.7
			c-0.6,1.1-1.3,1.9-2.2,2.4c1.4,0.6,2.4,1.5,3.1,2.7c0.7,1.2,1,2.7,1,4.3v6.9c0,1.1-0.4,1.9-1.1,2.7c-0.7,0.7-1.6,1.1-2.7,1.1
			c-1.1,0-2-0.4-2.7-1.1c-0.8-0.7-1.1-1.6-1.1-2.7V330.2z M253.4,317.1c0-0.8-0.3-1.4-0.8-1.9c-0.5-0.5-1.2-0.8-1.9-0.8h-15.5v5.5
			h15.5c0.8,0,1.4-0.3,1.9-0.8C253.2,318.5,253.4,317.9,253.4,317.1z"/>
		<path class="st2" d="M283.4,317.1c0-1.4,0.3-2.8,0.8-4c0.5-1.3,1.3-2.4,2.2-3.3c0.9-0.9,2-1.7,3.3-2.2c1.3-0.5,2.6-0.8,4-0.8h12.7
			c1.4,0,2.8,0.3,4,0.8c1.3,0.5,2.3,1.3,3.3,2.2c0.9,0.9,1.7,2,2.2,3.3c0.5,1.3,0.8,2.6,0.8,4v13.1c0,1.4-0.3,2.8-0.8,4
			c-0.5,1.3-1.3,2.3-2.2,3.3c-0.9,0.9-2,1.7-3.3,2.2c-1.3,0.5-2.6,0.8-4,0.8h-12.7c-1.4,0-2.8-0.3-4-0.8c-1.3-0.5-2.4-1.3-3.3-2.2
			c-0.9-0.9-1.7-2-2.2-3.3c-0.5-1.3-0.8-2.6-0.8-4V317.1z M309.3,317.1c0-0.8-0.3-1.4-0.8-1.9c-0.5-0.5-1.2-0.8-1.9-0.8h-12.7
			c-0.8,0-1.4,0.3-1.9,0.8c-0.5,0.5-0.8,1.2-0.8,1.9v13.1c0,0.8,0.3,1.4,0.8,1.9s1.2,0.8,1.9,0.8h12.7c0.8,0,1.4-0.3,1.9-0.8
			c0.5-0.5,0.8-1.2,0.8-1.9V317.1z"/>
		<path class="st2" d="M321.4,310.6c0-1.1,0.4-1.9,1.1-2.7c0.7-0.7,1.6-1.1,2.7-1.1h23.7c1.1,0,1.9,0.4,2.7,1.1
			c0.7,0.7,1.1,1.6,1.1,2.7s-0.4,2-1.1,2.7c-0.7,0.8-1.6,1.1-2.7,1.1h-8v22.8c0,1.1-0.4,1.9-1.1,2.7c-0.8,0.7-1.7,1.1-2.7,1.1
			c-1.1,0-2-0.4-2.7-1.1c-0.8-0.7-1.1-1.6-1.1-2.7v-22.8h-8c-1.1,0-1.9-0.4-2.7-1.1C321.8,312.5,321.4,311.6,321.4,310.6z"/>
		<path class="st2" d="M354.2,310.6c0-1.1,0.4-1.9,1.1-2.7c0.7-0.7,1.6-1.1,2.7-1.1h23.7c1.1,0,1.9,0.4,2.7,1.1
			c0.7,0.7,1.1,1.6,1.1,2.7s-0.4,2-1.1,2.7c-0.7,0.8-1.6,1.1-2.7,1.1h-8v22.8c0,1.1-0.4,1.9-1.1,2.7c-0.8,0.7-1.7,1.1-2.7,1.1
			c-1.1,0-2-0.4-2.7-1.1c-0.8-0.7-1.1-1.6-1.1-2.7v-22.8h-8c-1.1,0-1.9-0.4-2.7-1.1C354.6,312.5,354.2,311.6,354.2,310.6z"/>
	</g>
</g>
</svg>
