<?xml version="1.0" encoding="utf-8"?>
<!-- Generator: Adobe Illustrator 26.1.0, SVG Export Plug-In . SVG Version: 6.00 Build 0)  -->
<svg version="1.1" id="Layer_1" xmlns="http://www.w3.org/2000/svg" xmlns:xlink="http://www.w3.org/1999/xlink" x="0px" y="0px"
	 viewBox="0 0 400 430.2" style="enable-background:new 0 0 400 430.2;" xml:space="preserve">
<style type="text/css">
	.st0{fill:#C81619;}
	.st1{fill:#500F13;}
	.st2{fill:#7A7A7A;}
</style>
<g>
	<g>
		<path class="st0" d="M271.9,66c-4.2-4.7-8.9-9.1-13.9-13c-0.4,1.1,0.3,3,1,4.6c1.1,2.4,1.1,5.2,0,7.6c-1.5,3.3-4.7,7.8-11.7,12.8
			c-0.9,0.6-1.8,1.2-2.7,1.8c-16.8,10.6-55.2,38.3-55.2,38.3S151,90.4,134.2,79.8c-1.2-0.8-2.3-1.5-3.3-2.2
			c-6.7-4.8-9.7-9.2-11.2-12.4c-1.1-2.4-1-5.2,0.1-7.6c0.8-1.9,1.6-4.3,0.6-5.1c-4.7,3.6-9.1,7.7-13.2,12
			c-19.3,20.7-30.9,48.7-30.1,79.3c1.5,59.1,49.4,107.1,108.5,108.8c63.1,1.8,115-49,115-111.7C300.7,112.1,289.8,85.8,271.9,66z
			 M188.9,226.6c-47.3,0-85.8-38.5-85.8-85.8c0-14.4,3.6-28,9.9-40c-0.1,7-0.5,38.4,0,62.8c0.6,27.7,34.4,39.9,34.4,39.9v-82.4
			c0,0,38,25.4,41,83.4c0.1,1.3,2.1,1.3,2.2,0c1.6-62.2,41-83.4,41-83.4v82.4c0,0,33.8-12.3,34.4-39.9c0.5-22.5,0.2-50.8,0-60.7
			c5.6,11.4,8.8,24.3,8.8,37.9C274.7,188.1,236.2,226.6,188.9,226.6z"/>
		<path class="st1" d="M248.7,57.8c0,3.6-1,6.9-2.8,9.7c-2,3.1-6.2,3.8-9.1,1.6c-4.6-3.5-12.6-8.7-22.8-12.2c-0.5-0.2-1-0.3-1.5-0.5
			c-7.4-2.3-15.2-3.6-23.3-3.6c-8.3,0-16.3,1.3-23.7,3.7c-0.5,0.2-1,0.3-1.5,0.5c-10.2,3.6-18.1,8.9-22.6,12.3
			c-2.9,2.2-7.1,1.5-9.1-1.6c-1.9-2.9-3-6.3-3-10c0-0.3,0-0.7,0-1c0.3-5.7,3.8-10.8,8.7-13.7c1.8-1.1,3.6-2.1,5.5-3
			c13.8-6.9,29.3-10.9,45.7-10.9c16.6,0,32.3,4,46.1,11.1c1.7,0.8,3.3,1.7,4.9,2.7c3.9,2.2,6.8,5.9,8,10.2
			C248.5,54.7,248.7,56.2,248.7,57.8z"/>
	</g>
	<g>
		<path class="st2" d="M101.5,289.6c0-0.9-0.3-1.6-0.9-2.2c-0.6-0.6-1.3-0.9-2.2-0.9h-5.8c-0.9,0-1.6,0.3-2.2,0.9
			c-0.6,0.6-0.9,1.3-0.9,2.2v22.8c0,1.2-0.4,2.2-1.3,3.1c-0.8,0.8-1.9,1.3-3.1,1.3c-1.2,0-2.2-0.4-3.1-1.3c-0.9-0.8-1.3-1.9-1.3-3.1
			v-22.8c0-0.9-0.3-1.6-0.9-2.2c-0.6-0.6-1.4-0.9-2.2-0.9h-5.8c-0.9,0-1.7,0.3-2.3,0.9c-0.6,0.6-0.9,1.4-0.9,2.2v22.8
			c0,1.2-0.4,2.2-1.3,3.1c-0.8,0.8-1.9,1.3-3.1,1.3c-1.2,0-2.2-0.4-3.1-1.3c-0.8-0.8-1.3-1.9-1.3-3.1v-22.8c0-1.6,0.3-3.2,0.9-4.6
			c0.6-1.4,1.5-2.7,2.5-3.8c1.1-1.1,2.3-1.9,3.8-2.5c1.4-0.6,3-0.9,4.6-0.9h5.8c1.4,0,2.8,0.2,4,0.7s2.4,1.1,3.4,1.9
			c1-0.8,2.1-1.4,3.4-1.9c1.3-0.5,2.6-0.7,4-0.7h5.8c1.6,0,3.1,0.3,4.6,0.9c1.4,0.6,2.7,1.5,3.7,2.5c1.1,1.1,1.9,2.3,2.5,3.8
			c0.6,1.4,0.9,3,0.9,4.6v22.8c0,1.2-0.4,2.2-1.3,3.1c-0.8,0.8-1.9,1.3-3.1,1.3c-1.2,0-2.2-0.4-3.1-1.3c-0.8-0.8-1.3-1.9-1.3-3.1
			V289.6z"/>
		<path class="st2" d="M119,289.6c0-1.6,0.3-3.2,0.9-4.6c0.6-1.4,1.5-2.7,2.5-3.8c1-1.1,2.3-1.9,3.7-2.5c1.4-0.6,3-0.9,4.6-0.9h17.3
			c1.6,0,3.2,0.3,4.6,0.9c1.4,0.6,2.7,1.5,3.7,2.5c1,1.1,1.9,2.3,2.5,3.8c0.6,1.4,0.9,3,0.9,4.6v22.8c0,1.2-0.4,2.2-1.3,3.1
			c-0.8,0.8-1.9,1.3-3.1,1.3c-1.2,0-2.2-0.4-3.1-1.3c-0.9-0.8-1.3-1.9-1.3-3.1v-3.6h-23.6v3.6c0,1.2-0.4,2.2-1.3,3.1
			c-0.8,0.8-1.9,1.3-3.1,1.3c-1.2,0-2.2-0.4-3.1-1.3c-0.8-0.8-1.3-1.9-1.3-3.1V289.6z M127.6,300.1h23.6v-10.5
			c0-0.9-0.3-1.6-0.9-2.2c-0.6-0.6-1.3-0.9-2.2-0.9h-17.3c-0.9,0-1.6,0.3-2.2,0.9c-0.6,0.6-0.9,1.4-1,2.2V300.1z"/>
		<path class="st2" d="M165.7,311.9c0-1.2,0.4-2.2,1.3-3c0.8-0.9,1.8-1.3,3-1.3h24.4c0.9,0,1.6-0.3,2.2-0.9c0.6-0.6,0.9-1.3,0.9-2.2
			c0-0.9-0.3-1.6-0.9-2.2c-0.6-0.6-1.3-0.9-2.2-0.9h-16.4c-1.6,0-3.2-0.3-4.6-0.9c-1.4-0.6-2.7-1.5-3.8-2.5c-1.1-1-1.9-2.3-2.5-3.7
			c-0.6-1.4-0.9-3-0.9-4.6s0.3-3.2,0.9-4.6c0.6-1.4,1.5-2.7,2.5-3.8c1.1-1.1,2.3-1.9,3.8-2.5c1.4-0.6,3-0.9,4.6-0.9h21.2
			c1.2,0,2.2,0.4,3.1,1.3c0.8,0.9,1.3,1.9,1.3,3.1s-0.4,2.2-1.3,3.1c-0.8,0.8-1.9,1.3-3.1,1.3h-21.2c-0.9,0-1.6,0.3-2.2,0.9
			c-0.6,0.6-0.9,1.4-0.9,2.2c0,0.9,0.3,1.6,0.9,2.2c0.6,0.6,1.4,0.9,2.2,0.9h16.4c1.6,0,3.2,0.3,4.6,0.9c1.4,0.6,2.7,1.5,3.7,2.5
			c1,1.1,1.9,2.3,2.5,3.8c0.6,1.4,0.9,3,0.9,4.6c0,1.6-0.3,3.2-0.9,4.6c-0.6,1.4-1.5,2.7-2.5,3.7c-1,1-2.3,1.9-3.7,2.5
			c-1.4,0.6-3,0.9-4.6,0.9h-24.4c-1.2,0-2.2-0.4-3-1.3C166.1,314.1,165.7,313.1,165.7,311.9z"/>
		<path class="st2" d="M209.2,282.1c0-1.2,0.4-2.2,1.3-3.1c0.8-0.8,1.9-1.3,3.1-1.3h27c1.2,0,2.2,0.4,3.1,1.3s1.3,1.9,1.3,3.1
			c0,1.2-0.4,2.2-1.3,3.1c-0.8,0.9-1.9,1.3-3.1,1.3h-9.1v26c0,1.2-0.4,2.2-1.3,3.1c-0.9,0.8-1.9,1.3-3.1,1.3c-1.2,0-2.2-0.4-3.1-1.3
			c-0.9-0.8-1.3-1.9-1.3-3.1v-26h-9.1c-1.2,0-2.2-0.4-3.1-1.3C209.6,284.3,209.2,283.3,209.2,282.1z"/>
		<path class="st2" d="M258.1,292.7h21.1c1.2,0,2.2,0.4,3.1,1.3c0.8,0.8,1.3,1.9,1.3,3.1s-0.4,2.2-1.3,3.1c-0.8,0.9-1.9,1.3-3.1,1.3
			h-21.1v3.1c0.1,0.9,0.4,1.6,1,2.2c0.6,0.6,1.3,0.9,2.2,0.9H285c1.2,0,2.2,0.4,3.1,1.3c0.8,0.8,1.3,1.9,1.3,3.1
			c0,1.2-0.4,2.2-1.3,3.1c-0.8,0.8-1.9,1.3-3.1,1.3h-23.8c-1.6,0-3.2-0.3-4.6-0.9c-1.4-0.6-2.7-1.5-3.7-2.5c-1-1-1.9-2.3-2.5-3.7
			c-0.6-1.4-0.9-3-0.9-4.6v-14.9c0-1.6,0.3-3.2,0.9-4.6c0.6-1.4,1.5-2.7,2.5-3.7c1-1,2.3-1.9,3.7-2.5c1.4-0.6,3-0.9,4.6-0.9h23.9
			c1.2,0,2.2,0.4,3.1,1.3c0.8,0.8,1.3,1.9,1.3,3.1s-0.4,2.2-1.3,3.1c-0.8,0.8-1.9,1.3-3.1,1.3h-23.9c-0.9,0-1.6,0.3-2.2,0.9
			c-0.6,0.6-0.9,1.4-1,2.2V292.7z"/>
		<path class="st2" d="M325.8,304.5c0-0.9-0.3-1.6-0.9-2.2c-0.6-0.6-1.4-0.9-2.2-0.9h-18.9v11.1c0,1.2-0.4,2.2-1.3,3.1
			c-0.8,0.8-1.9,1.3-3.1,1.3s-2.2-0.4-3.1-1.3c-0.8-0.8-1.3-1.9-1.3-3.1v-32.7c0-0.6,0.2-1,0.5-1.4c0.4-0.4,0.8-0.5,1.4-0.5h24.4
			c1.9,0,3.6,0.3,5,0.9c1.5,0.6,2.7,1.5,3.7,2.5c1,1.1,1.8,2.3,2.3,3.8c0.5,1.4,0.8,3,0.8,4.6c0,1.5-0.3,2.9-1,4.2
			c-0.7,1.2-1.5,2.2-2.5,2.8c1.6,0.6,2.8,1.7,3.6,3.1c0.8,1.4,1.2,3,1.2,4.9v7.9c0,1.2-0.4,2.2-1.3,3.1c-0.8,0.8-1.9,1.3-3.1,1.3
			s-2.2-0.4-3.1-1.3c-0.9-0.8-1.3-1.9-1.3-3.1V304.5z M324.5,289.6c0-0.9-0.3-1.6-0.9-2.2c-0.6-0.6-1.3-0.9-2.2-0.9h-17.6v6.2h17.6
			c0.9,0,1.6-0.3,2.2-0.9C324.2,291.2,324.5,290.4,324.5,289.6z"/>
		<path class="st2" d="M60,366.7c0-1.6,0.3-3.2,0.9-4.6c0.6-1.4,1.5-2.7,2.5-3.8c1.1-1.1,2.3-1.9,3.8-2.5c1.4-0.6,3-0.9,4.6-0.9
			h14.5c1.6,0,3.2,0.3,4.6,0.9c1.4,0.6,2.7,1.5,3.7,2.5c1,1.1,1.9,2.3,2.5,3.8c0.6,1.4,0.9,3,0.9,4.6v14.9c0,1.6-0.3,3.2-0.9,4.6
			c-0.6,1.4-1.5,2.7-2.5,3.7c-1,1-2.3,1.9-3.7,2.5c-1.4,0.6-3,0.9-4.6,0.9H71.8c-1.6,0-3.2-0.3-4.6-0.9c-1.4-0.6-2.7-1.5-3.8-2.5
			c-1.1-1-1.9-2.3-2.5-3.7c-0.6-1.4-0.9-3-0.9-4.6V366.7z M89.4,366.7c0-0.9-0.3-1.6-0.9-2.2c-0.6-0.6-1.3-0.9-2.2-0.9H71.8
			c-0.9,0-1.6,0.3-2.2,0.9c-0.6,0.6-0.9,1.4-0.9,2.2v14.9c0,0.9,0.3,1.6,0.9,2.2c0.6,0.6,1.3,0.9,2.2,0.9h14.5
			c0.9,0,1.6-0.3,2.2-0.9c0.6-0.6,0.9-1.3,0.9-2.2V366.7z"/>
		<path class="st2" d="M103.2,359.2c0-1.2,0.4-2.2,1.3-3.1c0.8-0.8,1.9-1.3,3.1-1.3h27c1.2,0,2.2,0.4,3.1,1.3
			c0.8,0.8,1.3,1.9,1.3,3.1c0,1.2-0.4,2.2-1.3,3.1c-0.8,0.9-1.9,1.3-3.1,1.3h-9.1v26c0,1.2-0.4,2.2-1.3,3.1
			c-0.9,0.8-1.9,1.3-3.1,1.3c-1.2,0-2.2-0.4-3.1-1.3c-0.9-0.8-1.3-1.9-1.3-3.1v-26h-9.1c-1.2,0-2.2-0.4-3.1-1.3
			C103.6,361.4,103.2,360.4,103.2,359.2z"/>
		<path class="st2" d="M140.6,359.2c0-1.2,0.4-2.2,1.3-3.1c0.8-0.8,1.9-1.3,3.1-1.3h27c1.2,0,2.2,0.4,3.1,1.3
			c0.8,0.8,1.3,1.9,1.3,3.1c0,1.2-0.4,2.2-1.3,3.1c-0.8,0.9-1.9,1.3-3.1,1.3h-9.1v26c0,1.2-0.4,2.2-1.3,3.1
			c-0.9,0.8-1.9,1.3-3.1,1.3c-1.2,0-2.2-0.4-3.1-1.3c-0.9-0.8-1.3-1.9-1.3-3.1v-26h-9.1c-1.2,0-2.2-0.4-3.1-1.3
			C141,361.4,140.6,360.4,140.6,359.2z"/>
	</g>
</g>
</svg>
